<?xml version="1.0" encoding="UTF-8"?>
<svg version="1.1" xmlns="http://www.w3.org/2000/svg" width="1024" height="1024">
<path d="M0 0 C337.92 0 675.84 0 1024 0 C1024 337.92 1024 675.84 1024 1024 C686.08 1024 348.16 1024 0 1024 C0 686.08 0 348.16 0 0 Z " fill="#FEFEFE" transform="translate(0,0)"/>
<path d="M0 0 C2.81429654 1.57875172 5.10759368 3.34184827 7.5625 5.4375 C11.55783642 8.78739489 15.59929345 12.03193179 19.75 15.1875 C25.56497128 19.61732612 31.24002356 24.20688599 36.90112305 28.83105469 C40.25963141 31.57239605 43.62569232 34.2943063 47.0625 36.9375 C51.18752698 40.11180648 55.21715547 43.39759779 59.25 46.6875 C66.11840507 52.2888943 73.06334247 57.78392297 80.04296875 63.24560547 C85.16608453 67.26409057 90.23445032 71.3502391 95.27734375 75.46875 C102.54042411 81.39763407 109.83564104 87.25785362 117.3046875 92.92578125 C117.79588577 93.32556686 118.28708405 93.72535248 118.79316711 94.13725281 C120.60990185 95.54158103 120.60990185 95.54158103 123.01774597 96.71784973 C126.71433285 98.95022797 129.84542905 101.0945632 131.1624527 105.39776802 C132.18120089 111.47214985 132.04002361 117.63329377 131.99609375 123.7734375 C132.01046645 125.77830909 132.02735821 127.78316406 132.04664612 129.78799438 C132.07486801 133.98308858 132.06557184 138.17606411 132.03100586 142.37109375 C131.9908547 147.72868167 132.05470892 153.07919176 132.14832973 158.43590355 C132.20720526 162.57495127 132.20496695 166.71232051 132.18528938 170.85167313 C132.18416806 172.82517189 132.20295924 174.7987925 132.24264336 176.77189255 C132.49987062 191.73908785 132.49987062 191.73908785 129.27090645 196.23645973 C125.80868518 199.73444937 121.83987748 202.06214022 117.5625 204.4375 C116.2588463 205.40504909 114.9729506 206.39801264 113.72265625 207.43359375 C111.51476182 209.17373753 109.30640503 210.91328528 107.09765625 212.65234375 C106.51387207 213.11237793 105.93008789 213.57241211 105.32861328 214.04638672 C102.99093984 215.88770041 100.65099237 217.72610978 98.31079102 219.56420898 C97.14310701 220.4814304 95.97562723 221.39891187 94.80834961 222.31665039 C91.91969093 224.58760342 89.02879465 226.85557908 86.1328125 229.1171875 C79.86862724 234.01483554 73.65868742 238.9701603 67.5 244 C61.66458886 248.76377179 55.7573299 253.41025005 49.76953125 257.98046875 C46.36395771 260.58152661 42.99215327 263.22448071 39.625 265.875 C39.04419678 266.33205322 38.46339355 266.78910645 37.86499023 267.26000977 C36.0970723 268.65197284 34.32968726 270.04460944 32.5625 271.4375 C24.54596482 277.75610384 16.50780605 284.04178654 8.40234375 290.24609375 C5.54482198 292.38687469 5.54482198 292.38687469 3.00390625 294.78515625 C0.5625 296.4375 0.5625 296.4375 -1.875 296.49609375 C-5.27749086 295.09049158 -7.74192684 292.93847973 -10.4375 290.5 C-11.59294351 289.48847177 -12.75055328 288.47941343 -13.91015625 287.47265625 C-14.49684082 286.96234863 -15.08352539 286.45204102 -15.68798828 285.92626953 C-18.34401406 283.66609019 -21.09729701 281.54510392 -23.875 279.4375 C-24.95836601 278.6133242 -26.04169904 277.78910505 -27.125 276.96484375 C-27.93904297 276.34585205 -27.93904297 276.34585205 -28.76953125 275.71435547 C-31.65872508 273.50263361 -34.51666327 271.25137244 -37.375 269 C-37.95628662 268.54238281 -38.53757324 268.08476563 -39.13647461 267.61328125 C-40.31492749 266.68524757 -41.49323125 265.7570245 -42.67138672 264.82861328 C-45.00906016 262.98729959 -47.34900763 261.14889022 -49.68920898 259.31079102 C-50.85689299 258.3935696 -52.02437277 257.47608813 -53.19165039 256.55834961 C-56.08030907 254.28739658 -58.97120535 252.01942092 -61.8671875 249.7578125 C-68.07284689 244.90561818 -74.2192874 239.9928231 -80.3125 235 C-86.32360173 230.07818277 -92.46626662 225.37540486 -98.70947266 220.75292969 C-103.82072609 216.95008647 -108.69366443 212.93959908 -113.5546875 208.8203125 C-117.52643777 205.53742948 -121.64711593 202.48756773 -125.7890625 199.421875 C-128.76702165 197.19060177 -131.61861109 194.86487656 -134.4375 192.4375 C-130.50692435 185.94293957 -126.29123031 179.80606572 -121.61474609 173.82592773 C-117.88632843 169.05005472 -114.2740206 164.19568193 -110.6875 159.3125 C-109.79889282 158.10303711 -109.79889282 158.10303711 -108.89233398 156.86914062 C-107.67851382 155.2160845 -106.46505605 153.56276223 -105.25195312 151.90917969 C-102.31944254 147.91446263 -99.37813339 143.92623912 -96.4375 139.9375 C-95.27078889 138.35419941 -94.10412228 136.77086604 -92.9375 135.1875 C-90.60416667 132.02083333 -88.27083333 128.85416667 -85.9375 125.6875 C-85.35983887 124.9035083 -84.78217773 124.1195166 -84.18701172 123.31176758 C-83.02206151 121.73081017 -81.85702266 120.14991808 -80.69189453 118.5690918 C-77.7482302 114.57494172 -74.80618654 110.5796157 -71.8671875 106.58203125 C-65.94097168 98.5244571 -59.99011066 90.48761991 -53.97607422 82.49536133 C-50.09683958 77.33352828 -46.26249302 72.13961599 -42.4375 66.9375 C-40.10531207 63.76998825 -37.77172752 60.60350893 -35.4375 57.4375 C-34.85806641 56.65084961 -34.27863281 55.86419922 -33.68164062 55.05371094 C-32.02131023 52.80335353 -30.35531103 50.55731656 -28.6875 48.3125 C-28.18605469 47.63123047 -27.68460937 46.94996094 -27.16796875 46.24804688 C-23.6667529 41.55212645 -23.6667529 41.55212645 -21.4375 40.4375 C-21.4375 116.0075 -21.4375 191.5775 -21.4375 269.4375 C-20.1175 270.0975 -18.7975 270.7575 -17.4375 271.4375 C-16.3092861 272.24881466 -15.20470005 273.09390951 -14.125 273.96875 C-13.22394531 274.68998047 -13.22394531 274.68998047 -12.3046875 275.42578125 C-11.05989583 276.43359375 -9.81510417 277.44140625 -8.5703125 278.44921875 C-4.28487112 281.88230354 -4.28487112 281.88230354 0.5625 284.4375 C0.5625 283.7775 0.5625 283.1175 0.5625 282.4375 C1.86914063 281.22338867 1.86914063 281.22338867 3.71875 279.85546875 C4.40364502 279.34209961 5.08854004 278.82873047 5.79418945 278.29980469 C6.54273193 277.74711914 7.29127441 277.19443359 8.0625 276.625 C14.1014207 272.09469786 20.04364355 267.48218664 25.875 262.6875 C31.31895687 258.2224916 36.85138545 253.92800021 42.51171875 249.73828125 C47.35356058 246.08675137 52.05950038 242.26859493 56.78515625 238.46875 C60.29808376 235.64478991 63.83000157 232.8460637 67.375 230.0625 C67.93598389 229.62196289 68.49696777 229.18142578 69.07495117 228.72753906 C72.3937485 226.12598077 75.72171496 223.53649635 79.0546875 220.953125 C86.47226903 215.20289386 93.86554772 209.44290519 101.1015625 203.46484375 C105.21687038 200.07461393 109.39282782 196.76042988 113.5625 193.4375 C114.44164062 192.70144531 115.32078125 191.96539062 116.2265625 191.20703125 C118.5625 189.4375 118.5625 189.4375 120.5625 189.4375 C120.68696457 179.03161942 120.75166995 168.62721423 120.74128246 158.22054386 C120.73831055 153.38740878 120.7554793 148.5561365 120.81958008 143.72338867 C120.88075589 139.05416706 120.8878448 134.38763568 120.85833168 129.71813774 C120.8564364 127.94198706 120.87363134 126.16570455 120.91072655 124.38994026 C121.32775994 114.28354606 121.32775994 114.28354606 117.22036743 105.44235229 C114.43900223 103.14624019 111.64668702 101.29815875 108.5625 99.4375 C106.70969492 97.9827978 104.87326672 96.50670801 103.0625 95 C100.60261269 93.02330484 98.19100253 91.18983502 95.5625 89.4375 C95.99820313 89.94796875 96.43390625 90.4584375 96.8828125 90.984375 C101.8353504 97.03033036 105.29163331 103.35661277 108.5625 110.4375 C97.76918572 111.86777968 97.76918572 111.86777968 92.5625 110.4375 C89.5072721 107.74247653 87.70490588 105.00315093 85.5546875 101.5546875 C79.53306552 92.13262017 68.52122906 87.8533641 58.0625 85.125 C43.92660364 82.47611131 30.45596778 85.46783024 18.5625 93.4375 C6.32697671 102.64105344 -1.18074583 115.48355574 -4.4375 130.4375 C-5.09319665 139.30097585 -5.33195752 148.96518163 -2.4375 157.4375 C-2.1075 158.45070313 -1.7775 159.46390625 -1.4375 160.5078125 C1.21472762 168.02827371 4.5374804 174.2494846 9.5625 180.4375 C10.04976562 181.06140625 10.53703125 181.6853125 11.0390625 182.328125 C18.2846274 190.57692196 30.66882902 196.6569566 41.5625 197.4375 C42.55507813 197.51742187 43.54765625 197.59734375 44.5703125 197.6796875 C59.66632282 198.29807828 72.68267098 192.88858325 84.01953125 183.16015625 C85.84117312 181.12637381 86.78912742 179.00334409 88 176.5625 C89.41015625 174.23046875 89.41015625 174.23046875 91.5625 172.4375 C96.99699196 171.6441829 102.11243536 171.91320637 107.5625 172.4375 C103.42182365 185.91877183 92.68397906 197.49826382 80.5625 204.4375 C76.63769588 206.34531869 72.65805415 207.93671304 68.5625 209.4375 C67.79808594 209.75847656 67.03367187 210.07945312 66.24609375 210.41015625 C51.73522202 215.83596046 33.90024042 212.85162368 20.03125 206.9296875 C9.46727375 201.62301719 -3.00545082 192.30159837 -8.4375 181.4375 C-8.56686176 178.89214693 -8.63681885 176.37283814 -8.66210938 173.82592773 C-8.67919449 172.64748543 -8.67919449 172.64748543 -8.69662476 171.44523621 C-8.80741689 163.21292919 -8.85473686 154.97972183 -8.89746094 146.74682617 C-8.9197037 142.84435851 -8.96142134 138.94285206 -9.02050781 135.04077148 C-9.09178056 130.32453155 -9.12832065 125.60919353 -9.14057922 120.8924427 C-9.15095134 119.09951877 -9.17330784 117.30662052 -9.20817566 115.51400566 C-9.49907257 99.73750172 -9.49907257 99.73750172 -5.02758789 93.91259766 C-3.86952815 92.71560543 -2.67770639 91.54915681 -1.4375 90.4375 C-0.72464844 89.66277344 -0.01179687 88.88804687 0.72265625 88.08984375 C16.64094169 73.74050636 35.00697525 68.4818168 56.04785156 69.24511719 C64.37834403 69.8824403 71.98912184 73.12117757 79.5625 76.4375 C67.89712268 66.93705971 67.89712268 66.93705971 56.16796875 57.515625 C54.1473396 55.90396876 52.12940561 54.28915142 50.11328125 52.671875 C41.63681686 45.87479355 33.11556089 39.13783485 24.5625 32.4375 C22.74421387 31.01210494 20.92625038 29.58630588 19.10913086 28.15942383 C17.92504023 27.23052653 16.73968393 26.30324002 15.55297852 25.37768555 C12.86012409 23.272182 10.21255677 21.14157175 7.6015625 18.93359375 C6.72242188 18.19238281 5.84328125 17.45117188 4.9375 16.6875 C4.18210937 16.03265625 3.42671875 15.3778125 2.6484375 14.703125 C0.69689659 13.26652085 0.69689659 13.26652085 -1.34765625 13.46484375 C-4.32326543 14.84975344 -6.67272651 16.71735789 -9.25 18.75 C-10.09498047 19.41225586 -10.09498047 19.41225586 -10.95703125 20.08789062 C-12.79062578 21.52943369 -14.61522248 22.98168206 -16.4375 24.4375 C-17.35861572 25.17299072 -17.35861572 25.17299072 -18.29833984 25.92333984 C-20.81915564 27.93854412 -23.33839132 29.95566301 -25.85327148 31.97827148 C-29.79876978 35.14690971 -33.7847967 38.2490349 -37.8125 41.3125 C-42.87715873 45.16737244 -47.79305647 49.18176121 -52.6875 53.25 C-59.13728067 58.61011832 -65.71621159 63.75838578 -72.40429688 68.81689453 C-77.58764239 72.75020998 -82.58346086 76.84774623 -87.5546875 81.046875 C-91.63394776 84.42967619 -95.84182088 87.63499837 -100.0546875 90.84765625 C-103.7085799 93.6359267 -107.32529782 96.47052578 -110.9375 99.3125 C-111.51290527 99.76488037 -112.08831055 100.21726074 -112.68115234 100.68334961 C-114.26819639 101.93270984 -115.85290759 103.18503176 -117.4375 104.4375 C-118.31680176 104.92984131 -119.19610352 105.42218262 -120.10205078 105.92944336 C-123.76984636 109.86831687 -123.03255757 113.82623813 -122.8984375 119.01171875 C-122.89539592 121.14518171 -122.89280614 123.27864536 -122.890625 125.41210938 C-122.85729768 128.76518075 -122.81262169 132.11768611 -122.75683594 135.47045898 C-122.71184413 138.71393743 -122.70959097 141.95547586 -122.7109375 145.19921875 C-122.68099701 146.19016037 -122.65105652 147.18110199 -122.62020874 148.20207214 C-122.65078163 156.83909681 -126.27417933 161.22251565 -132.16513062 167.18656921 C-132.58501251 167.59937637 -133.00489441 168.01218353 -133.4375 168.4375 C-133.78708852 160.1706167 -134.05253183 151.90687948 -134.21468258 143.63440323 C-134.29256842 139.79151417 -134.39788107 135.95372273 -134.5690918 132.11376953 C-135.73684539 105.22650239 -135.73684539 105.22650239 -130.2800293 98.87719727 C-127.26143542 96.17511832 -124.02984325 94.24123703 -120.39785767 92.47509766 C-117.06098001 90.70892177 -114.26985395 88.27575337 -111.375 85.875 C-110.21869243 84.96290808 -109.06013608 84.05365311 -107.8984375 83.1484375 C-107.32706055 82.70081055 -106.75568359 82.25318359 -106.16699219 81.79199219 C-105.0139974 80.8889974 -103.8610026 79.9860026 -102.70800781 79.08300781 C-95.45743096 73.40277586 -88.23633509 67.68864363 -81.05200195 61.92480469 C-76.78535978 58.50528573 -72.49370646 55.11950898 -68.1875 51.75 C-62.20168209 47.06163336 -56.31014942 42.26698143 -50.4375 37.4375 C-41.96899835 30.49323779 -33.45925687 23.63299586 -24.75 16.9921875 C-20.26311266 13.55315251 -15.8638858 10.0038689 -11.46069336 6.45874023 C-10.29304652 5.51935755 -9.12135197 4.58497393 -7.94482422 3.65673828 C-6.69240077 2.6436831 -5.49597694 1.56186621 -4.31640625 0.46484375 C-2.4375 -0.5625 -2.4375 -0.5625 0 0 Z " fill="#613B74" transform="translate(514.4375,314.5625)"/>
<path d="M0 0 C0.33 0 0.66 0 1 0 C1 27.72 1 55.44 1 84 C-23.5 83.75 -23.5 83.75 -31.18945312 83.57714844 C-33.22007162 83.58315244 -35.2506839 83.59360035 -37.28125 83.609375 C-38.83924316 83.54967529 -38.83924316 83.54967529 -40.42871094 83.48876953 C-43.95436992 83.43252883 -43.95436992 83.43252883 -49 85 C-51.64 88.96 -54.28 92.92 -57 97 C-37.86 97 -18.72 97 1 97 C1 122.74 1 148.48 1 175 C-9.50888313 167.11833765 -19.87606351 159.14279825 -30.04345703 150.82910156 C-34.79921884 146.94979309 -39.62022457 143.17077673 -44.49926758 139.44824219 C-47.59373199 137.08626067 -50.65627054 134.69254094 -53.6875 132.25 C-58.54196204 128.34235865 -63.45559587 124.51278017 -68.375 120.6875 C-69.16092529 120.07616211 -69.94685059 119.46482422 -70.7565918 118.83496094 C-74.15244647 116.19727608 -77.55456765 113.57278799 -81 111 C-79.54990614 106.73547666 -77.41610759 103.70574079 -74.625 100.1875 C-73.71652694 99.02936768 -72.80901646 97.87047981 -71.90234375 96.7109375 C-71.42651855 96.10475586 -70.95069336 95.49857422 -70.46044922 94.87402344 C-67.99862376 91.71505116 -65.59048511 88.51634826 -63.1875 85.3125 C-62.68597412 84.64404053 -62.18444824 83.97558105 -61.66772461 83.28686523 C-57.39645177 77.57178186 -53.22736248 71.78578207 -49.06494141 65.99121094 C-44.35037141 59.44575351 -39.52150039 52.99042049 -34.66796875 46.54760742 C-30.30143798 40.74788672 -25.98205926 34.9156729 -21.6875 29.0625 C-16.89755177 22.53664672 -12.02720035 16.08509107 -7.0625 9.69140625 C-5.29861299 7.38966733 -3.59981564 5.06291126 -1.9375 2.6875 C-0.9784375 1.3571875 -0.9784375 1.3571875 0 0 Z " fill="#FBF8FB" transform="translate(478,397)"/>
<path d="M0 0 C1.65 0 3.3 0 5 0 C11.15946844 22.42524917 11.15946844 22.42524917 11 30 C11.66 30 12.32 30 13 30 C13.103125 28.865625 13.20625 27.73125 13.3125 26.5625 C13.79821764 22.6562356 14.85350193 19.21687388 16.16796875 15.51953125 C17.73918876 10.76161151 18.83786372 5.87108186 20 1 C21.98 1 23.96 1 26 1 C26.17128418 1.6705542 26.34256836 2.3411084 26.51904297 3.03198242 C27.30090269 6.08471967 28.08789884 9.13611017 28.875 12.1875 C29.14441406 13.24259766 29.41382813 14.29769531 29.69140625 15.38476562 C29.95566406 16.40634766 30.21992187 17.42792969 30.4921875 18.48046875 C30.85352783 19.88655396 30.85352783 19.88655396 31.22216797 21.32104492 C31.99002832 23.96565623 32.93359883 26.46277003 34 29 C34.26478149 27.83428467 34.26478149 27.83428467 34.53491211 26.64501953 C35.33311968 23.1377359 36.13525881 19.63136309 36.9375 16.125 C37.21529297 14.90167969 37.49308594 13.67835938 37.77929688 12.41796875 C38.18051758 10.66806641 38.18051758 10.66806641 38.58984375 8.8828125 C38.83597412 7.80402832 39.08210449 6.72524414 39.33569336 5.61376953 C40 3 40 3 41 1 C42.65 1 44.3 1 46 1 C44.6126515 9.53492427 42.59074386 17.83342508 40.375 26.1875 C40.05015625 27.42564453 39.7253125 28.66378906 39.390625 29.93945312 C38.5974221 32.96062299 37.80048292 35.98075248 37 39 C35.02 39 33.04 39 31 39 C29.82512185 34.75222625 28.661523 30.50144326 27.5 26.25 C27.16613281 25.0434375 26.83226562 23.836875 26.48828125 22.59375 C26.17246094 21.43359375 25.85664062 20.2734375 25.53125 19.078125 C25.23798828 18.00981445 24.94472656 16.94150391 24.64257812 15.84082031 C24 13 24 13 24 9 C23.34 9 22.68 9 22 9 C21.9071875 10.7325 21.9071875 10.7325 21.8125 12.5 C21.22470466 18.00948472 19.54205104 23.08852942 17.81567383 28.32617188 C16.65005211 31.86489755 15.62682963 35.32449896 15 39 C13.02 39 11.04 39 9 39 C7.71374746 33.929109 6.43212259 28.85707958 5.15478516 23.78393555 C4.71953512 22.05802797 4.28301892 20.3324392 3.84521484 18.60717773 C3.21639737 16.12826804 2.59213194 13.64825013 1.96875 11.16796875 C1.77188599 10.39599655 1.57502197 9.62402435 1.37219238 8.82865906 C0.61730699 5.8100668 0 3.12469987 0 0 Z " fill="#1C1D1E" transform="translate(663,666)"/>
<path d="M0 0 C1.98 0 3.96 0 6 0 C9.53776474 8.1066368 12.69349744 16.35017032 15.8125 24.625 C16.22169678 25.70458984 16.63089355 26.78417969 17.05249023 27.89648438 C17.43348877 28.91291016 17.8144873 29.92933594 18.20703125 30.9765625 C18.5522583 31.89518066 18.89748535 32.81379883 19.25317383 33.76025391 C20 36 20 36 20 38 C18.35 38 16.7 38 15 38 C12 31.25 12 31.25 12 29 C6.06 29.33 0.12 29.66 -6 30 C-6.99 32.64 -7.98 35.28 -9 38 C-10.65 38 -12.3 38 -14 38 C-11.76923381 29.97381764 -8.89939117 22.25708398 -5.875 14.5 C-5.41996094 13.32179688 -4.96492187 12.14359375 -4.49609375 10.9296875 C-1.16477997 2.32955995 -1.16477997 2.32955995 0 0 Z " fill="#1E1F21" transform="translate(727,667)"/>
<path d="M0 0 C1.98 0 3.96 0 6 0 C9.62895726 6.88484415 12.46230393 13.98902419 15.25 21.25 C15.70890625 22.42046875 16.1678125 23.5909375 16.640625 24.796875 C17.07375 25.9209375 17.506875 27.045 17.953125 28.203125 C18.34661133 29.22051758 18.74009766 30.23791016 19.14550781 31.28613281 C20 34 20 34 20 38 C18.35 38 16.7 38 15 38 C14.01 35.36 13.02 32.72 12 30 C6.06 29.67 0.12 29.34 -6 29 C-6.99 31.97 -7.98 34.94 -9 38 C-10.32 38 -11.64 38 -13 38 C-10.69570402 24.93415154 -4.87856265 12.27373255 0 0 Z " fill="#191A1C" transform="translate(259,667)"/>
<path d="M0 0 C6 0 6 0 7.77929688 1.60131836 C8.25431641 2.34003174 8.72933594 3.07874512 9.21875 3.83984375 C10.02892578 5.06477539 10.02892578 5.06477539 10.85546875 6.31445312 C11.39816406 7.18005859 11.94085938 8.04566406 12.5 8.9375 C13.04269531 9.76830078 13.58539063 10.59910156 14.14453125 11.45507812 C15.17939799 13.04195612 16.20592107 14.63433452 17.22070312 16.23413086 C19.76443091 20.18828728 22.39197074 24.08795611 25 28 C25.33 18.76 25.66 9.52 26 0 C27.65 0 29.3 0 31 0 C31 12.54 31 25.08 31 38 C26 38 26 38 24.45776367 36.61401367 C24.03213135 35.97181885 23.60649902 35.32962402 23.16796875 34.66796875 C22.67876953 33.95060547 22.18957031 33.23324219 21.68554688 32.49414062 C21.19119141 31.73294922 20.69683594 30.97175781 20.1875 30.1875 C19.2029733 28.72188282 18.21727418 27.25705262 17.23046875 25.79296875 C16.16441406 24.21128906 15.09835937 22.62960937 14 21 C11.36 17.37 8.72 13.74 6 10 C5.67 19.24 5.34 28.48 5 38 C3.35 38 1.7 38 0 38 C0 25.46 0 12.92 0 0 Z " fill="#1A1C1E" transform="translate(287,667)"/>
<path d="M0 0 C1.65 0 3.3 0 5 0 C5 5.28 5 10.56 5 16 C11.93 16 18.86 16 26 16 C26 10.72 26 5.44 26 0 C27.65 0 29.3 0 31 0 C31 12.54 31 25.08 31 38 C29.35 38 27.7 38 26 38 C26 32.39 26 26.78 26 21 C19.07 21 12.14 21 5 21 C5 26.61 5 32.22 5 38 C3.35 38 1.7 38 0 38 C0 25.46 0 12.92 0 0 Z " fill="#15171A" transform="translate(577,667)"/>
<path d="M0 0 C1.89947803 0.95311887 3.74202552 2.01813318 5.5703125 3.1015625 C4.9103125 4.4215625 4.2503125 5.7415625 3.5703125 7.1015625 C2.7865625 6.7715625 2.0028125 6.4415625 1.1953125 6.1015625 C-3.61705972 4.77401154 -9.80115465 3.78729608 -14.4296875 6.1015625 C-14.4296875 8.4115625 -14.4296875 10.7215625 -14.4296875 13.1015625 C-10.58891233 14.81765353 -6.8295697 16.31204648 -2.8046875 17.5390625 C1.03252786 18.83125297 3.94019314 19.87754522 6.5703125 23.1015625 C7.52372609 27.63878967 7.19411871 31.01567762 4.8828125 35.0390625 C0.21823521 39.19936117 -4.58123072 39.59046017 -10.625 39.4921875 C-14.87461593 38.90031899 -18.40623818 37.1769909 -21.4296875 34.1015625 C-21.4296875 33.1115625 -21.4296875 32.1215625 -21.4296875 31.1015625 C-17.4296875 31.1015625 -17.4296875 31.1015625 -15.03515625 32.0859375 C-12.10232022 33.22917194 -9.87850154 33.36867745 -6.7421875 33.3515625 C-5.31326172 33.35929688 -5.31326172 33.35929688 -3.85546875 33.3671875 C-1.24867386 33.33783991 -1.24867386 33.33783991 0.5703125 31.1015625 C0.73712359 28.01808424 0.73712359 28.01808424 0.5703125 25.1015625 C-0.5640625 24.6684375 -1.6984375 24.2353125 -2.8671875 23.7890625 C-3.59421875 23.510625 -4.32125 23.2321875 -5.0703125 22.9453125 C-7.41166439 22.07603349 -7.41166439 22.07603349 -9.7890625 21.4453125 C-15.48317608 19.84026035 -18.31257719 18.22971171 -21.4296875 13.1015625 C-22.0546875 10.1015625 -22.0546875 10.1015625 -21.4296875 7.1015625 C-16.06775632 -0.64344921 -9.09276923 -3.36227801 0 0 Z " fill="#1F2022" transform="translate(463.4296875,666.8984375)"/>
<path d="M0 0 C8.25 0 16.5 0 25 0 C25 1.32 25 2.64 25 4 C18.4 4 11.8 4 5 4 C5 7.96 5 11.92 5 16 C10.94 16 16.88 16 23 16 C23 17.65 23 19.3 23 21 C17.06 21 11.12 21 5 21 C5 25.29 5 29.58 5 34 C11.93 34 18.86 34 26 34 C26 35.32 26 36.64 26 38 C17.42 38 8.84 38 0 38 C0 25.46 0 12.92 0 0 Z " fill="#252627" transform="translate(409,667)"/>
<path d="M0 0 C1.65 0 3.3 0 5 0 C5.07455949 4.02009457 5.12879358 8.03991733 5.16479492 12.06054688 C5.17981428 13.42617816 5.20023608 14.79176176 5.22631836 16.15722656 C5.26300137 18.12803905 5.27818551 20.09921408 5.29296875 22.0703125 C5.3086792 23.25383301 5.32438965 24.43735352 5.34057617 25.65673828 C4.82639046 30.70423587 3.18966638 33.92639864 -0.5625 37.3125 C-5.29801198 40.59093137 -9.33841832 40.60175494 -15 40 C-18.95257508 38.71907289 -21.46014083 36.87615842 -23.6730957 33.28466797 C-25.15673135 29.61202142 -25.34536526 27.01751615 -25.29296875 23.0703125 C-25.28330078 21.78125 -25.27363281 20.4921875 -25.26367188 19.1640625 C-25.23861188 17.81770214 -25.21321712 16.47134797 -25.1875 15.125 C-25.17243504 13.75522295 -25.15874982 12.38542998 -25.14648438 11.015625 C-25.11121379 7.67667642 -25.06191896 4.33854325 -25 1 C-23.35 1 -21.7 1 -20 1 C-19.9906543 1.85754883 -19.98130859 2.71509766 -19.97167969 3.59863281 C-19.92758709 6.78972679 -19.86593944 9.97986756 -19.79248047 13.17041016 C-19.76430901 14.54951651 -19.74307528 15.92878318 -19.72900391 17.30810547 C-19.70752455 19.29422949 -19.65876868 21.27999909 -19.609375 23.265625 C-19.58842773 24.45961914 -19.56748047 25.65361328 -19.54589844 26.88378906 C-18.89728792 30.58632243 -17.97486649 31.76718186 -15 34 C-11.35380221 34.92812307 -8.8484193 35.20739139 -5.1875 34.3125 C-2.53857861 32.72314716 -2.08966444 31.86627823 -1 29 C-0.63348459 25.80558548 -0.63348459 25.80558548 -0.5859375 22.265625 C-0.54726563 20.97011719 -0.50859375 19.67460938 -0.46875 18.33984375 C-0.43729733 16.97656716 -0.40604993 15.61328582 -0.375 14.25 C-0.33679531 12.87106972 -0.29774213 11.49216266 -0.2578125 10.11328125 C-0.16351996 6.74232282 -0.0779178 3.37137022 0 0 Z " fill="#1A1C1E" transform="translate(355,666)"/>
<path d="M0 0 C2.97634925 1.64897935 5.04971166 3.17914687 6.6875 6.25 C6.6875 6.91 6.6875 7.57 6.6875 8.25 C4.5 9.0625 4.5 9.0625 1.6875 9.25 C0.57375 8.0434375 0.57375 8.0434375 -0.5625 6.8125 C-3.49509189 4.07985756 -4.03078742 3.8252445 -7.8125 3.6875 C-12.06298345 3.92127659 -14.3457143 5.0977902 -17.3125 8.25 C-18.82913393 11.28326785 -18.48347474 14.128846 -18.5 17.5 C-18.51417969 18.80453125 -18.52835938 20.1090625 -18.54296875 21.453125 C-18.3197734 25.13017386 -17.7593904 27.87560875 -16.3125 31.25 C-12.49926454 33.90770956 -8.78478215 33.21308144 -4.3984375 32.63671875 C-2.12971998 32.26573821 -2.12971998 32.26573821 0.6875 31.25 C1.42073796 29.23491642 1.42073796 29.23491642 1.6875 27.25 C3.3375 27.58 4.9875 27.91 6.6875 28.25 C5.33594718 32.67326378 3.48859562 34.65412982 -0.3125 37.25 C-4.66299665 38.70016555 -8.76584185 38.76070107 -13.3125 38.25 C-18.89320397 35.45964802 -22.32376915 31.82070022 -24.5625 26 C-26.18450898 17.88995509 -25.83781388 11.39086227 -21.3125 4.25 C-15.42812495 -2.20283949 -7.85240774 -3.69439847 0 0 Z " fill="#242426" transform="translate(561.3125,667.75)"/>
<path d="M0 0 C1.32 0 2.64 0 4 0 C4 5.28 4 10.56 4 16 C10.93 16 17.86 16 25 16 C25 10.72 25 5.44 25 0 C26.65 0 28.3 0 30 0 C30 12.54 30 25.08 30 38 C28.68 38 27.36 38 26 38 C26 32.06 26 26.12 26 20 C18.74 20 11.48 20 4 20 C4 25.94 4 31.88 4 38 C2.68 38 1.36 38 0 38 C0 25.46 0 12.92 0 0 Z " fill="#18191B" transform="translate(480,667)"/>
<path d="M0 0 C1.65 0 3.3 0 5 0 C7.87720033 6.95480948 10.40929118 13.97334362 12.75 21.125 C13.8225 24.38375 14.895 27.6425 16 31 C19.63 20.77 23.26 10.54 27 0 C28.98 0 30.96 0 33 0 C29.78738636 10.55415341 26.50240153 20.90951145 22 31 C21.39390326 32.41584199 20.78942601 33.83237985 20.1875 35.25 C19.795625 36.1575 19.40375 37.065 19 38 C17.02 38 15.04 38 13 38 C11.1445353 32.91113754 9.29322861 27.82078954 7.44580078 22.72900391 C6.81641577 20.99616433 6.18588584 19.26374016 5.55419922 17.53173828 C4.6477179 15.04567413 3.74533134 12.55815716 2.84375 10.0703125 C2.55939087 9.29317902 2.27503174 8.51604553 1.98205566 7.71536255 C0 2.22774341 0 2.22774341 0 0 Z " fill="#1A1A1C" transform="translate(368,667)"/>
<path d="M0 0 C1.65 0 3.3 0 5 0 C5 11.22 5 22.44 5 34 C11.27 34 17.54 34 24 34 C24 35.32 24 36.64 24 38 C16.08 38 8.16 38 0 38 C0 25.46 0 12.92 0 0 Z " fill="#151619" transform="translate(755,667)"/>
<path d="M0 0 C1.65 0 3.3 0 5 0 C5 11.22 5 22.44 5 34 C11.27 34 17.54 34 24 34 C24 35.32 24 36.64 24 38 C16.08 38 8.16 38 0 38 C0 25.46 0 12.92 0 0 Z " fill="#1C1E20" transform="translate(637,667)"/>
<path d="M0 0 C1.98 0 3.96 0 6 0 C7.57035335 2.49409061 8.0274945 3.70443416 7.75 6.6875 C7.5025 7.450625 7.255 8.21375 7 9 C6.01 9.495 6.01 9.495 5 10 C4.67 8.35 4.34 6.7 4 5 C3.34 5 2.68 5 2 5 C2.04898438 5.69996094 2.09796875 6.39992188 2.1484375 7.12109375 C1.97168066 10.5492462 0.99802696 12.92358577 -0.375 16.0625 C-0.81585937 17.08472656 -1.25671875 18.10695313 -1.7109375 19.16015625 C-2.75660419 21.46379167 -3.86861545 23.73723091 -5 26 C0.61 26 6.22 26 12 26 C12 26.66 12 27.32 12 28 C6.06 28 0.12 28 -6 28 C-6.99 31.3 -7.98 34.6 -9 38 C-10.65 38 -12.3 38 -14 38 C-11.76923381 29.97381764 -8.89939117 22.25708398 -5.875 14.5 C-5.41996094 13.32179688 -4.96492187 12.14359375 -4.49609375 10.9296875 C-1.16477997 2.32955995 -1.16477997 2.32955995 0 0 Z " fill="#17181A" transform="translate(727,667)"/>
<path d="M0 0 C1.65 0 3.3 0 5 0 C5 5.28 5 10.56 5 16 C11.93 16 18.86 16 26 16 C26 16.33 26 16.66 26 17 C16.595 17.495 16.595 17.495 7 18 C7 18.33 7 18.66 7 19 C13.27 19.33 19.54 19.66 26 20 C26 20.33 26 20.66 26 21 C19.07 21 12.14 21 5 21 C5 26.61 5 32.22 5 38 C3.35 38 1.7 38 0 38 C0 25.46 0 12.92 0 0 Z " fill="#242628" transform="translate(577,667)"/>
<path d="M0 0 C1.65 0 3.3 0 5 0 C5 13.2 5 26.4 5 40 C3.35 40 1.7 40 0 40 C0 26.8 0 13.6 0 0 Z " fill="#222324" transform="translate(620,666)"/>
<path d="M0 0 C1.32 0 2.64 0 4 0 C4.33 5.28 4.66 10.56 5 16 C11.93 16.495 11.93 16.495 19 17 C18.67 17.99 18.34 18.98 18 20 C13.38 20 8.76 20 4 20 C4 25.94 4 31.88 4 38 C2.68 38 1.36 38 0 38 C0 25.46 0 12.92 0 0 Z " fill="#0E0F10" transform="translate(480,667)"/>
<path d="M0 0 C0.66 0 1.32 0 2 0 C3.00577013 2.76886123 4.00480147 5.53984104 5 8.3125 C5.28617188 9.09818359 5.57234375 9.88386719 5.8671875 10.69335938 C6.13789062 11.45068359 6.40859375 12.20800781 6.6875 12.98828125 C7.06455078 14.03302612 7.06455078 14.03302612 7.44921875 15.09887695 C8 17 8 17 8 20 C3.38 20 -1.24 20 -6 20 C-5.26034857 15.56209145 -4.83866563 13.21622826 -3 9.4375 C-1.53438415 6.2938602 -0.44798237 3.47186333 0 0 Z " fill="#EAEAEB" transform="translate(729,672)"/>
<path d="M0 0 C2.23793576 3.35690365 3.65050338 6.8339284 5.125 10.5625 C5.40214844 11.24763672 5.67929687 11.93277344 5.96484375 12.63867188 C8 17.7466133 8 17.7466133 8 20 C3.05 20 -1.9 20 -7 20 C-5.04068712 13.14240492 -2.75665244 6.57678502 0 0 Z " fill="#EAEAEA" transform="translate(262,672)"/>
<path d="M0 0 C2.475 0.495 2.475 0.495 5 1 C3.64844718 5.42326378 1.80109562 7.40412982 -2 10 C-6.34839174 11.44946391 -10.45562114 11.51592482 -15 11 C-18.99924698 9.00037651 -21.47255894 7.27683498 -23 3 C-20.03824877 3.61277612 -18.61941217 4.25372522 -16 6 C-10.86989666 6.66447053 -5.66129267 6.33064634 -1 4 C-0.03122943 1.96756452 -0.03122943 1.96756452 0 0 Z " fill="#1E1E21" transform="translate(563,695)"/>
<path d="M0 0 C3 1 3 1 4 3 C4.08510205 4.9593604 4.10717656 6.92162794 4.09765625 8.8828125 C4.09443359 10.04941406 4.09121094 11.21601562 4.08789062 12.41796875 C4.07951172 13.64128906 4.07113281 14.86460937 4.0625 16.125 C4.05798828 17.35605469 4.05347656 18.58710937 4.04882812 19.85546875 C4.0370133 22.90369392 4.02054028 25.95182314 4 29 C2.68 29 1.36 29 0 29 C0 19.43 0 9.86 0 0 Z " fill="#0A0C0E" transform="translate(288,676)"/>
<path d="M0 0 C8.25 0 16.5 0 25 0 C25 1.32 25 2.64 25 4 C21.72918529 4.02902429 18.4584037 4.04680684 15.1875 4.0625 C14.25873047 4.07087891 13.32996094 4.07925781 12.37304688 4.08789062 C11.48037109 4.09111328 10.58769531 4.09433594 9.66796875 4.09765625 C8.43469849 4.10551147 8.43469849 4.10551147 7.17651367 4.11352539 C5 4 5 4 2 3 C1.67 4.98 1.34 6.96 1 9 C0.67 9 0.34 9 0 9 C0 6.03 0 3.06 0 0 Z " fill="#0D0E10" transform="translate(409,667)"/>
<path d="M0 0 C0 0.66 0 1.32 0 2 C5.61 2 11.22 2 17 2 C17 2.66 17 3.32 17 4 C11.06 4 5.12 4 -1 4 C-1.99 7.3 -2.98 10.6 -4 14 C-5.65 14 -7.3 14 -9 14 C-8.52140759 12.39566191 -8.04210442 10.79153584 -7.5625 9.1875 C-7.29566406 8.29417969 -7.02882813 7.40085937 -6.75390625 6.48046875 C-6.19612127 4.64526945 -5.60655425 2.81966274 -5 1 C-2 0 -2 0 0 0 Z " fill="#101113" transform="translate(722,691)"/>
<path d="M0 0 C1.65 0 3.3 0 5 0 C3.89309248 6.40593286 2.66054831 12.71363856 1 19 C0.67 18.34 0.34 17.68 0 17 C-1.32 17.33 -2.64 17.66 -4 18 C-2.28571429 4.57142857 -2.28571429 4.57142857 0 0 Z " fill="#1F2021" transform="translate(704,667)"/>
<path d="M0 0 C0 0.99 0 1.98 0 3 C0.99 2.67 1.98 2.34 3 2 C4.89470816 1.9314505 6.7916834 1.91519628 8.6875 1.9375 C9.68136719 1.94652344 10.67523438 1.95554687 11.69921875 1.96484375 C12.83810547 1.98224609 12.83810547 1.98224609 14 2 C14.33 2.66 14.66 3.32 15 4 C9.72 4 4.44 4 -1 4 C-1.66 6.97 -2.32 9.94 -3 13 C-4.65 13.33 -6.3 13.66 -8 14 C-7.29771949 9.50540476 -5.99912387 5.09389959 -4 1 C-2 0 -2 0 0 0 Z " fill="#111113" transform="translate(254,691)"/>
<path d="M0 0 C5.03896583 -0.3585035 8.87762138 -0.54114683 13.5 1.6875 C16.07068171 4.06538058 17.0717492 5.65829712 18 9 C15.8125 9.8125 15.8125 9.8125 13 10 C11.33333333 8.33333333 9.66666667 6.66666667 8 5 C5.06945485 3.72993237 2.08247006 2.82602139 -1 2 C-0.67 1.34 -0.34 0.68 0 0 Z " fill="#161617" transform="translate(550,667)"/>
<path d="M0 0 C1.98 0 3.96 0 6 0 C4.46527032 4.72224516 2.76054874 9.35855331 1 14 C-0.65 14 -2.3 14 -4 14 C-3.52188823 12.22888156 -3.0424722 10.45811517 -2.5625 8.6875 C-2.29566406 7.70136719 -2.02882813 6.71523438 -1.75390625 5.69921875 C-1.21920575 3.78482474 -0.62855462 1.88566385 0 0 Z " fill="#212123" transform="translate(389,684)"/>
<path d="M0 0 C0.70511719 0.30679688 1.41023438 0.61359375 2.13671875 0.9296875 C5.04265573 2.01594498 7.75754152 2.6097058 10.8125 3.125 C11.78832031 3.29257812 12.76414062 3.46015625 13.76953125 3.6328125 C14.50558594 3.75398437 15.24164063 3.87515625 16 4 C16 4.33 16 4.66 16 5 C14.865625 5.12375 13.73125 5.2475 12.5625 5.375 C10.7990625 5.684375 10.7990625 5.684375 9 6 C8.67 6.66 8.34 7.32 8 8 C11.3 8 14.6 8 18 8 C18 8.33 18 8.66 18 9 C11.04915812 9.57497773 6.24008644 9.3085146 0.36328125 5.38671875 C-1 4 -1 4 -1 1 C-0.67 0.67 -0.34 0.34 0 0 Z " fill="#464748" transform="translate(443,697)"/>
<path d="M0 0 C6.27 0 12.54 0 19 0 C19 0.99 19 1.98 19 3 C11.08 3 3.16 3 -5 3 C-4.67 2.34 -4.34 1.68 -4 1 C-2.02 1.495 -2.02 1.495 0 2 C0 1.34 0 0.68 0 0 Z " fill="#050607" transform="translate(642,702)"/>
<path d="M0 0 C0.99 0 1.98 0 3 0 C2.22095672 10.55808656 2.22095672 10.55808656 0 15 C-0.99 15 -1.98 15 -3 15 C-3.3152595 9.01006953 -2.68219822 5.36439644 0 0 Z " fill="#111213" transform="translate(701,684)"/>
<path d="M0 0 C1.11375 0.1546875 1.11375 0.1546875 2.25 0.3125 C2.25 1.3025 2.25 2.2925 2.25 3.3125 C1.775625 3.76625 1.30125 4.22 0.8125 4.6875 C-1.19583349 6.77616683 -1.36869524 8.4908448 -1.75 11.3125 C-3.4 11.3125 -5.05 11.3125 -6.75 11.3125 C-7.09718988 7.58020881 -6.98503152 5.71292406 -5.0625 2.4375 C-2.75 0.3125 -2.75 0.3125 0 0 Z " fill="#1F1F21" transform="translate(448.75,668.6875)"/>
<path d="M0 0 C0.33 0 0.66 0 1 0 C1.19401633 1.81181405 1.38004375 3.62448532 1.5625 5.4375 C1.66691406 6.44683594 1.77132813 7.45617187 1.87890625 8.49609375 C1.93884766 9.73552734 1.93884766 9.73552734 2 11 C1.67 11.33 1.34 11.66 1 12 C0.84141158 14.14386657 0.74870702 16.29266838 0.68359375 18.44140625 C0.64169922 19.74658203 0.59980469 21.05175781 0.55664062 22.39648438 C0.51682392 23.7851533 0.47711175 25.17382522 0.4375 26.5625 C0.39432011 27.95509183 0.350706 29.34767028 0.30664062 30.74023438 C0.20014124 34.16004801 0.09813077 37.57993763 0 41 C-0.33 41 -0.66 41 -1 41 C-1.02464705 35.32169922 -1.04283462 29.64342931 -1.05493164 23.96508789 C-1.05997256 22.03181415 -1.06680519 20.09854424 -1.07543945 18.1652832 C-1.08751565 15.39273128 -1.09323057 12.62022959 -1.09765625 9.84765625 C-1.10281754 8.97786636 -1.10797882 8.10807648 -1.11329651 7.21192932 C-1.11349185 5.14094186 -1.06208168 3.07005676 -1 1 C-0.67 0.67 -0.34 0.34 0 0 Z " fill="#553563" transform="translate(507,454)"/>
<path d="M0 0 C5.94 0 11.88 0 18 0 C18 0.99 18 1.98 18 3 C12.06 3 6.12 3 0 3 C0 2.01 0 1.02 0 0 Z " fill="#0B0D0F" transform="translate(414,684)"/>
<path d="M0 0 C0.33 0 0.66 0 1 0 C1.28838914 5.57552338 1.178344 9.17362578 -2 14 C-2.99 14.33 -3.98 14.66 -5 15 C-5.37181347 9.91854918 -4.26899214 6.53798427 -2 2 C-1.34 1.34 -0.68 0.68 0 0 Z " fill="#131417" transform="translate(683,676)"/>
<path d="M0 0 C0.33 1.32 0.66 2.64 1 4 C-2.28519475 5.09506492 -4.73663415 5.09960608 -8.1875 5.0625 C-9.81751953 5.04896484 -9.81751953 5.04896484 -11.48046875 5.03515625 C-12.31191406 5.02355469 -13.14335937 5.01195312 -14 5 C-13.67 4.01 -13.34 3.02 -13 2 C-11.39658445 1.66307215 -9.79223445 1.33058907 -8.1875 1 C-7.29417969 0.814375 -6.40085937 0.62875 -5.48046875 0.4375 C-3 0 -3 0 0 0 Z " fill="#0D0E0F" transform="translate(465,700)"/>
<path d="M0 0 C1.32 0.66 2.64 1.32 4 2 C3.44894091 5.9492568 2.61064629 9.34920174 1 13 C-0.32 12.34 -1.64 11.68 -3 11 C-3 10.01 -3 9.02 -3 8 C-2.34 8 -1.68 8 -1 8 C-0.67 5.36 -0.34 2.72 0 0 Z " fill="#26292C" transform="translate(677,688)"/>
<path d="M0 0 C2.96175123 0.61277612 4.38058783 1.25372522 7 3 C7.845625 3.144375 8.69125 3.28875 9.5625 3.4375 C12 4 12 4 14 7 C6.23214286 7.66964286 6.23214286 7.66964286 2.5 4.625 C0 2 0 2 0 0 Z " fill="#121316" transform="translate(540,698)"/>
<path d="M0 0 C0.33 0.66 0.66 1.32 1 2 C1.66 2.33 2.32 2.66 3 3 C1.8125 5.9375 1.8125 5.9375 0 9 C-2.6875 9.875 -2.6875 9.875 -5 10 C-4.55090939 8.51800098 -4.09043436 7.03944764 -3.625 5.5625 C-3.36976563 4.73878906 -3.11453125 3.91507813 -2.8515625 3.06640625 C-2 1 -2 1 0 0 Z " fill="#202123" transform="translate(255,682)"/>
<path d="M0 0 C4.62 0 9.24 0 14 0 C13.67 0.99 13.34 1.98 13 3 C8.38 3 3.76 3 -1 3 C-0.67 2.01 -0.34 1.02 0 0 Z " fill="#06070A" transform="translate(485,684)"/>
<path d="M0 0 C4.29 0 8.58 0 13 0 C12.67 0.99 12.34 1.98 12 3 C8.04 3 4.08 3 0 3 C0 2.01 0 1.02 0 0 Z " fill="#030406" transform="translate(582,684)"/>
<path d="M0 0 C0 0.33 0 0.66 0 1 C-2.31 1.33 -4.62 1.66 -7 2 C-7 2.33 -7 2.66 -7 3 C-4.03 3.495 -4.03 3.495 -1 4 C-1 4.33 -1 4.66 -1 5 C-7.625 5.125 -7.625 5.125 -11 4 C-11.33 4.66 -11.66 5.32 -12 6 C-12.66 5.67 -13.32 5.34 -14 5 C-14 4.34 -14 3.68 -14 3 C-8.99067246 -0.00559652 -5.67276511 -0.29341888 0 0 Z " fill="#383838" transform="translate(557,666)"/>
<path d="M0 0 C4.2026393 2.63886654 7.56638098 5.36440339 11 9 C6.27775484 7.46527032 1.64144669 5.76054874 -3 4 C-2.01 3.67 -1.02 3.34 0 3 C0 2.01 0 1.02 0 0 Z " fill="#E6D3EB" transform="translate(584,383)"/>
<path d="M0 0 C0.66 0.33 1.32 0.66 2 1 C0.38405168 3.04119788 -1.2856382 5.04072937 -3 7 C-3.66 7 -4.32 7 -5 7 C-5 10.3 -5 13.6 -5 17 C-5.33 17 -5.66 17 -6 17 C-6.92017937 6.31569507 -6.92017937 6.31569507 -4.6640625 3.08984375 C-3 1.75 -3 1.75 0 0 Z " fill="#664873" transform="translate(387,413)"/>
<path d="M0 0 C1.32 0.66 2.64 1.32 4 2 C4 3.32 4 4.64 4 6 C2.02 6 0.04 6 -2 6 C-1.125 1.125 -1.125 1.125 0 0 Z " fill="#16191B" transform="translate(674,699)"/>
<path d="M0 0 C0.33 0.99 0.66 1.98 1 3 C-0.77444972 5.24606427 -1.58352485 5.95081002 -4.48046875 6.29296875 C-5.82044922 6.24076172 -5.82044922 6.24076172 -7.1875 6.1875 C-8.53908203 6.14689453 -8.53908203 6.14689453 -9.91796875 6.10546875 C-10.60503906 6.07066406 -11.29210937 6.03585937 -12 6 C-12 5.67 -12 5.34 -12 5 C-8.535 4.505 -8.535 4.505 -5 4 C-5 3.01 -5 2.02 -5 1 C-2 0 -2 0 0 0 Z " fill="#313436" transform="translate(352,700)"/>
<path d="M0 0 C2.97 0.33 5.94 0.66 9 1 C9.33 1.99 9.66 2.98 10 4 C7.03 4 4.06 4 1 4 C0.67 2.68 0.34 1.36 0 0 Z " fill="#07090B" transform="translate(339,701)"/>
<path d="M0 0 C3 1 3 1 4.0625 2.9375 C4.371875 3.618125 4.68125 4.29875 5 5 C5.66 5.66 6.32 6.32 7 7 C1.46153846 6.50769231 1.46153846 6.50769231 -0.875 3.9375 C-1.431875 2.9784375 -1.431875 2.9784375 -2 2 C-1.34 1.34 -0.68 0.68 0 0 Z " fill="#1A1A1C" transform="translate(443,697)"/>
<path d="M0 0 C1.2065625 0.0309375 1.2065625 0.0309375 2.4375 0.0625 C2.4375 1.0525 2.4375 2.0425 2.4375 3.0625 C-0.2025 3.7225 -2.8425 4.3825 -5.5625 5.0625 C-3.15007962 0.07683121 -3.15007962 0.07683121 0 0 Z " fill="#101111" transform="translate(448.5625,668.9375)"/>
<path d="M0 0 C0.66 0.33 1.32 0.66 2 1 C-1.16952847 4.26008643 -4.39937989 7.22237877 -8 10 C-8 7 -8 7 -6.25 5.17578125 C-5.5075 4.56089844 -4.765 3.94601562 -4 3.3125 C-3.2575 2.68988281 -2.515 2.06726563 -1.75 1.42578125 C-1.1725 0.95527344 -0.595 0.48476563 0 0 Z " fill="#644973" transform="translate(450,363)"/>
<path d="M0 0 C0.99 0.33 1.98 0.66 3 1 C-0.42388092 4.82669043 -3.00724943 6.72278474 -8 8 C-3.375 2.25 -3.375 2.25 0 0 Z " fill="#5B3D6B" transform="translate(632,505)"/>
<path d="M0 0 C5.65394631 -0.34615998 9.03006806 0.56574762 14 3 C14 3.66 14 4.32 14 5 C12.41531323 4.54636829 10.83230076 4.08688548 9.25 3.625 C8.36828125 3.36976563 7.4865625 3.11453125 6.578125 2.8515625 C4.23919428 2.0790066 2.16557438 1.16374324 0 0 Z " fill="#73567E" transform="translate(573,399)"/>
<path d="M0 0 C0.66 0 1.32 0 2 0 C2.66 1.32 3.32 2.64 4 4 C2.68 4.99 1.36 5.98 0 7 C-0.66 5.35 -1.32 3.7 -2 2 C-1.34 2 -0.68 2 0 2 C0 1.34 0 0.68 0 0 Z " fill="#1E1F23" transform="translate(305,687)"/>
<path d="M0 0 C0 3 0 3 -2.25 5.75 C-3.1575 6.4925 -4.065 7.235 -5 8 C-6.32 7.67 -7.64 7.34 -9 7 C-6.03 4.69 -3.06 2.38 0 0 Z " fill="#674A75" transform="translate(579,547)"/>
<path d="M0 0 C4.35535069 1.16142685 6.64619703 2.07699505 9 6 C8.67 6.66 8.34 7.32 8 8 C6.66372225 6.85760183 5.33104612 5.71098945 4 4.5625 C3.2575 3.92441406 2.515 3.28632812 1.75 2.62890625 C1.1725 2.09136719 0.595 1.55382812 0 1 C0 0.67 0 0.34 0 0 Z " fill="#61446D" transform="translate(464,572)"/>
<path d="M0 0 C0.33 0 0.66 0 1 0 C1.309375 0.94875 1.61875 1.8975 1.9375 2.875 C2.87394742 5.86080408 2.87394742 5.86080408 4 8 C1.36 7.67 -1.28 7.34 -4 7 C-4 6.34 -4 5.68 -4 5 C-2.68 5 -1.36 5 0 5 C0 3.35 0 1.7 0 0 Z " fill="#2B2D30" transform="translate(447,675)"/>
<path d="M0 0 C0.99 0.33 1.98 0.66 3 1 C0.03 3.475 0.03 3.475 -3 6 C-3.66 5.34 -4.32 4.68 -5 4 C-2.6875 1.9375 -2.6875 1.9375 0 0 Z " fill="#684C77" transform="translate(552,568)"/>
<path d="M0 0 C0.99 0.33 1.98 0.66 3 1 C0.36 2.98 -2.28 4.96 -5 7 C-5 6.01 -5 5.02 -5 4 C-2.6875 1.75 -2.6875 1.75 0 0 Z " fill="#5B3C6A" transform="translate(560,562)"/>
<path d="M0 0 C0 0.66 0 1.32 0 2 C-1.96147874 3.38938077 -3.96166576 4.7260411 -6 6 C-6.66 5.34 -7.32 4.68 -8 4 C-2.25 0 -2.25 0 0 0 Z " fill="#684D76" transform="translate(448,377)"/>
<path d="M0 0 C0.99 0.33 1.98 0.66 3 1 C0.03 3.475 0.03 3.475 -3 6 C-3.66 5.34 -4.32 4.68 -5 4 C-2.6875 1.9375 -2.6875 1.9375 0 0 Z " fill="#654775" transform="translate(479,340)"/>
<path d="M0 0 C0.66 0.33 1.32 0.66 2 1 C-1.465 3.97 -1.465 3.97 -5 7 C-5.66 6.67 -6.32 6.34 -7 6 C-4.69 4.02 -2.38 2.04 0 0 Z " fill="#F1E5F4" transform="translate(504,333)"/>
</svg>
